<svg xmlns="http://www.w3.org/2000/svg" viewBox="0 0 1200 630">
  <defs>
    <linearGradient id="grad1" x1="0%" y1="0%" x2="100%" y2="100%">
      <stop offset="0%" style="stop-color:#1e3a8a;stop-opacity:1" />
      <stop offset="100%" style="stop-color:#3b82f6;stop-opacity:1" />
    </linearGradient>
  </defs>
  
  <!-- Background -->
  <rect width="1200" height="630" fill="url(#grad1)"/>
  
  <!-- Decorative circles -->
  <circle cx="100" cy="80" r="60" fill="#60a5fa" opacity="0.3"/>
  <circle cx="1100" cy="550" r="80" fill="#93c5fd" opacity="0.2"/>
  <circle cx="600" cy="600" r="100" fill="#3b82f6" opacity="0.15"/>
  
  <!-- Main content -->
  <g>
    <!-- Icon container -->
    <rect x="50" y="100" width="200" height="200" rx="20" fill="#1e40af" opacity="0.5"/>
    
    <!-- Dashboard icon -->
    <rect x="80" y="130" width="140" height="140" rx="10" fill="none" stroke="#60a5fa" stroke-width="3"/>
    
    <!-- Grid pattern for dashboard -->
    <rect x="100" y="150" width="50" height="50" rx="5" fill="#60a5fa"/>
    <rect x="170" y="150" width="50" height="50" rx="5" fill="#3b82f6"/>
    <rect x="100" y="220" width="50" height="50" rx="5" fill="#3b82f6"/>
    <rect x="170" y="220" width="50" height="50" rx="5" fill="#60a5fa"/>
    
    <!-- Text content -->
    <text x="320" y="200" font-family="Arial, sans-serif" font-size="72" font-weight="bold" fill="white">
      E-commerce
    </text>
    <text x="320" y="280" font-family="Arial, sans-serif" font-size="72" font-weight="bold" fill="white">
      Dashboard
    </text>
    
    <!-- Subtitle -->
    <text x="320" y="340" font-family="Arial, sans-serif" font-size="32" fill="#dbeafe">
      Real-time Analytics &amp; Sales Management
    </text>
    
    <!-- Stats icons -->
    <g>
      <!-- Sales icon -->
      <circle cx="320" cy="430" r="25" fill="#60a5fa"/>
      <text x="315" y="440" font-family="Arial" font-size="28" font-weight="bold" fill="#1e40af">$</text>
      
      <!-- Orders icon -->
      <circle cx="480" cy="430" r="25" fill="#93c5fd"/>
      <text x="470" y="445" font-family="Arial" font-size="20" font-weight="bold" fill="#1e40af">📦</text>
      
      <!-- Users icon -->
      <circle cx="640" cy="430" r="25" fill="#60a5fa"/>
      <text x="630" y="445" font-family="Arial" font-size="20" font-weight="bold" fill="#1e40af">👥</text>
    </g>
  </g>
</svg>
